<svg width="25" height="24" viewBox="0 0 25 24" fill="none" xmlns="http://www.w3.org/2000/svg">
<path fill-rule="evenodd" clip-rule="evenodd" d="M19.8772 11.5024C19.8807 11.5216 19.8841 11.5408 19.8876 11.56C19.9316 11.7958 20.1594 12.0493 20.3638 12.166C20.4156 12.1954 20.473 12.221 20.5336 12.2418C20.8684 12.4061 21.2036 12.57 21.5388 12.7339C21.821 12.8719 22.1032 13.0099 22.3851 13.1481C22.2173 13.9345 22.0498 14.7202 21.8835 15.5071C21.8615 15.5089 21.8394 15.5108 21.8173 15.5127C21.0999 15.5732 20.3825 15.6337 19.665 15.7029C19.6339 15.7062 19.6178 15.7047 19.6023 15.7032C19.5703 15.7002 19.5409 15.6974 19.3855 15.7384C19.1034 15.8145 18.9326 15.9844 18.7644 16.2049C18.7553 16.2176 18.7463 16.2296 18.7372 16.2417C18.7281 16.2537 18.7191 16.2658 18.71 16.2785L18.4616 16.6131L18.4611 16.6137C18.262 16.8823 18.0628 17.1509 17.8663 17.4194C17.7265 17.607 17.6127 17.8023 17.6334 18.0584C17.6349 18.0873 17.6393 18.1162 17.6436 18.1451C17.6465 18.1643 17.6494 18.1836 17.6515 18.2029C17.6683 18.3449 17.6858 18.4862 17.7032 18.6275C17.7207 18.7689 17.7382 18.9103 17.755 19.0523C17.7912 19.3502 17.8281 19.6481 17.865 19.946C17.8771 20.0436 17.8892 20.1413 17.9012 20.2389L15.5825 21.3225C15.5682 21.3078 15.5539 21.2931 15.5396 21.2784C15.3591 21.0927 15.1785 20.9069 14.9987 20.7206C14.8861 20.6053 14.7743 20.49 14.6624 20.3747C14.5504 20.2593 14.4384 20.1438 14.3258 20.0284C14.296 19.998 14.2669 19.9676 14.2378 19.9372C14.2087 19.9067 14.1795 19.8763 14.1498 19.8458C13.9375 19.6329 13.6632 19.5315 13.363 19.5264C12.961 19.5213 12.5589 19.523 12.1569 19.5247C11.9559 19.5255 11.7549 19.5264 11.5539 19.5264C11.233 19.5264 10.925 19.5847 10.6791 19.823C10.66 19.8403 10.6426 19.8592 10.6249 19.8783C10.6115 19.8929 10.5979 19.9076 10.5833 19.9219L9.99067 20.533C9.73521 20.7955 9.47976 21.059 9.22488 21.3222L6.907 20.2391C6.91345 20.1866 6.91989 20.1341 6.92634 20.0816C6.9574 19.8287 6.98845 19.5758 7.01951 19.3235C7.03892 19.1625 7.05898 19.0022 7.07904 18.8418C7.0991 18.6814 7.11915 18.5211 7.13857 18.3601C7.14056 18.3435 7.14257 18.3271 7.14456 18.3109C7.17889 18.0312 7.20771 17.7964 7.01692 17.5208C6.78035 17.1829 6.53026 16.8508 6.28038 16.5189C6.20222 16.4151 6.12408 16.3114 6.04638 16.2075C5.87815 15.9844 5.70734 15.8145 5.42523 15.7384C5.26644 15.6965 5.23926 15.6991 5.20632 15.7023C5.19147 15.7037 5.17546 15.7053 5.14572 15.7029C5.13536 15.7017 5.12566 15.701 5.11595 15.7004C5.10624 15.6998 5.09654 15.6991 5.08619 15.6979L4.81444 15.675L3.84131 15.5914C3.54621 15.566 3.25111 15.54 2.95601 15.514C2.94632 15.5132 2.93663 15.5123 2.92694 15.5115C2.75911 14.7249 2.59152 13.9392 2.42506 13.1524C2.44768 13.1414 2.4703 13.1303 2.49291 13.1193C2.73296 13.002 2.973 12.8848 3.2124 12.7669L4.14412 12.3105C4.1545 12.3054 4.16487 12.3003 4.17522 12.2952C4.51314 12.1288 4.83015 11.9727 4.92055 11.5397C5.00473 11.1446 5.07346 10.7447 5.14205 10.3458C5.17467 10.156 5.20727 9.96638 5.24148 9.77757C5.29583 9.48092 5.33983 9.16399 5.15089 8.89524C5.11467 8.84454 5.07586 8.79638 5.03705 8.74822L5.03702 8.74818C4.85067 8.50731 4.66433 8.26644 4.47798 8.02304C4.28778 7.77713 4.09822 7.53185 3.90866 7.28657C3.85575 7.21811 3.80285 7.14966 3.74994 7.08119C3.94914 6.83858 4.14826 6.59596 4.34737 6.35334C4.71073 5.91059 5.0741 5.46785 5.43798 5.0251C5.69858 5.1272 5.95918 5.22966 6.21978 5.33293C6.38542 5.39783 6.5505 5.46492 6.71566 5.53205C7.05373 5.66945 7.39216 5.80699 7.73642 5.92622C8.12138 6.06012 8.50434 5.85619 8.84648 5.674C8.89307 5.64919 8.93891 5.62478 8.98389 5.60169C9.13139 5.52564 9.27953 5.44959 9.42767 5.37354C9.57587 5.29746 9.72406 5.22138 9.87161 5.1453C10.1511 5.00332 10.3582 4.78781 10.4565 4.48102C10.4656 4.4544 10.4733 4.42778 10.4811 4.40116C10.4889 4.37453 10.4966 4.34791 10.5057 4.32128C10.5429 4.19984 10.5796 4.07839 10.6162 3.95716C10.6637 3.79998 10.7111 3.64314 10.7593 3.48712L10.76 3.48491C10.8578 3.1618 10.9556 2.83869 11.0533 2.51604H13.7491C13.7599 2.5518 13.7706 2.58757 13.7814 2.62334C13.8419 2.8239 13.9024 3.02472 13.9634 3.22597C14.0113 3.38312 14.0585 3.53965 14.1057 3.69617C14.153 3.85278 14.2002 4.00938 14.2481 4.16662C14.2544 4.1871 14.2605 4.20755 14.2667 4.22794C14.3702 4.5711 14.469 4.89863 14.833 5.09967C15.2984 5.35547 15.7792 5.59357 16.255 5.82912L16.2565 5.82988C16.5257 5.96425 16.844 6.0175 17.1287 5.90594L17.4004 5.79945C17.5532 5.73986 17.7065 5.67963 17.8599 5.6194C18.0132 5.5592 18.1665 5.49899 18.3192 5.43942L18.3202 5.43903C18.6685 5.30222 19.0168 5.1654 19.3652 5.02923C19.6201 5.33964 19.8749 5.65004 20.1296 5.96045C20.4375 6.33562 20.7454 6.71079 21.0536 7.08596C20.9738 7.18914 20.894 7.29233 20.8142 7.39552C20.5974 7.67568 20.3806 7.95585 20.1645 8.23602C20.1077 8.30976 20.0484 8.38292 19.989 8.45629C19.8727 8.59986 19.7557 8.74422 19.6547 8.89524C19.4606 9.18681 19.5175 9.52656 19.5745 9.84603C19.5926 9.94491 19.6107 10.0432 19.6288 10.1414C19.6469 10.2397 19.665 10.3379 19.6832 10.4368C19.7201 10.6429 19.7579 10.849 19.7955 11.0547C19.8161 11.1672 19.8367 11.2796 19.8571 11.3918C19.8611 11.4289 19.8678 11.4658 19.8772 11.5024ZM21.6447 9.66246C21.7021 9.97749 21.7595 10.293 21.8169 10.6086C22.1811 10.7875 22.5458 10.9658 22.9105 11.1442C23.3007 11.335 23.6908 11.5258 24.0804 11.7172C24.2771 11.8135 24.422 12.0113 24.5048 12.2015C24.598 12.4195 24.6057 12.6325 24.5566 12.8607C24.5229 13.0204 24.4893 13.1776 24.4556 13.3348C24.2528 14.2962 24.048 15.2557 23.8429 16.2165C23.8073 16.3834 23.7717 16.5502 23.7361 16.7171C23.6921 16.9275 23.5343 17.1177 23.366 17.2445C23.1745 17.389 22.9752 17.4422 22.7397 17.4625C22.675 17.4676 22.6103 17.4733 22.5456 17.479C22.4809 17.4847 22.4162 17.4904 22.3515 17.4955C21.6392 17.5558 20.9284 17.6177 20.2168 17.68C20.1632 17.7523 20.1096 17.8247 20.0561 17.897C19.9489 18.0418 19.8417 18.1866 19.7346 18.3312C19.7373 18.3544 19.7401 18.3776 19.7427 18.4006C19.7931 18.8063 19.843 19.2126 19.8928 19.6189C19.9426 20.0252 19.9924 20.4315 20.0429 20.8372C20.0817 21.1567 19.8229 21.575 19.5305 21.7119C19.4541 21.7474 19.3784 21.7829 19.3027 21.8184C19.227 21.8539 19.1513 21.8894 19.0749 21.9249L15.8683 23.4234C15.6457 23.5248 15.4516 23.5755 15.2083 23.5425C14.9883 23.5146 14.7683 23.4259 14.613 23.2636C14.5729 23.2218 14.5322 23.18 14.4914 23.1381C14.4506 23.0963 14.4099 23.0545 14.3698 23.0126C13.8986 22.5258 13.4256 22.0371 12.9524 21.5497H11.8565C11.3043 22.1203 10.7497 22.6932 10.1951 23.2636C10.0373 23.4259 9.81985 23.5146 9.59986 23.5425C9.35917 23.5755 9.15471 23.5248 8.93989 23.4234C8.86348 23.3878 8.78772 23.3523 8.71196 23.3168C8.63632 23.2813 8.56067 23.2459 8.48438 23.2104L5.27771 21.7119C4.98525 21.575 4.72644 21.1592 4.76526 20.8372C4.77174 20.7802 4.77885 20.7225 4.78597 20.6648C4.79309 20.6071 4.80021 20.5494 4.80667 20.4924C4.85714 20.0867 4.90696 19.6804 4.95679 19.2741C4.99543 18.9589 5.03408 18.6437 5.07303 18.3289C4.9141 18.1133 4.75467 17.8973 4.59504 17.6816C3.82121 17.6157 3.04906 17.5481 2.27527 17.4804L2.07104 17.4625C1.82776 17.4397 1.63623 17.389 1.44471 17.2445C1.27649 17.1177 1.11861 16.9275 1.07461 16.7171C1.04097 16.5574 1.00732 16.4002 0.973678 16.243C0.732983 15.1172 0.492288 13.989 0.259358 12.8581C0.210184 12.6249 0.217948 12.417 0.31112 12.1989C0.39394 12.0088 0.538875 11.811 0.735571 11.7147C0.817174 11.6728 0.900236 11.6323 0.982566 11.5922C1.00991 11.5789 1.03716 11.5657 1.06426 11.5524C1.45382 11.3609 1.84402 11.1701 2.23423 10.9793C2.49031 10.8541 2.7464 10.7289 3.0023 10.6034C3.05959 10.2892 3.11688 9.97439 3.17416 9.65943C3.16534 9.6481 3.15652 9.63677 3.14769 9.62545C2.88242 9.28317 2.6178 8.94027 2.35317 8.59736C2.08853 8.25443 1.82388 7.91149 1.55859 7.56919C1.4266 7.39932 1.40848 7.12549 1.43695 6.92265C1.46801 6.68686 1.57412 6.51952 1.72164 6.3395C1.77599 6.27358 1.83034 6.20702 1.88469 6.14047C1.93904 6.07391 1.99339 6.00736 2.04774 5.94144C2.43856 5.46603 2.82872 4.99063 3.21888 4.51522C3.60904 4.03983 3.99919 3.56444 4.38999 3.08905C4.59445 2.83804 5.09137 2.70874 5.39676 2.8279C5.45629 2.85199 5.51647 2.87544 5.57664 2.8989C5.63681 2.92235 5.69699 2.9458 5.75651 2.96989C6.18099 3.13597 6.60611 3.30269 7.03124 3.4694C7.34274 3.59156 7.65424 3.71372 7.96548 3.83563L8.59708 3.5112C8.70827 3.14439 8.81895 2.77809 8.92963 2.41178C9.0493 2.01572 9.16897 1.61966 9.28929 1.22296C9.41869 0.79447 9.82503 0.477539 10.2883 0.477539H10.8111H14.5302C14.9909 0.477539 15.3998 0.79447 15.5292 1.22296C15.5461 1.27874 15.5629 1.33516 15.5797 1.39157C15.5965 1.44798 15.6133 1.5044 15.6302 1.56018C15.7505 1.95708 15.8703 2.35335 15.99 2.74961C16.0666 3.00318 16.1432 3.25674 16.22 3.51047L16.852 3.83511C16.8588 3.83237 16.8657 3.82962 16.8725 3.82687C17.2969 3.6608 17.722 3.49409 18.1471 3.32739C18.5722 3.16068 18.9973 2.99397 19.4218 2.8279C19.7271 2.70874 20.2215 2.83804 20.4285 3.08905C20.4829 3.15498 20.5372 3.22153 20.5916 3.28809C20.6459 3.35464 20.7003 3.4212 20.7546 3.48712C21.1453 3.96236 21.5353 4.4376 21.9254 4.91284C22.3157 5.38839 22.7059 5.86395 23.0969 6.3395C23.2496 6.52712 23.3479 6.68432 23.3816 6.92265C23.4126 7.05957 23.4074 7.19395 23.3635 7.32833C23.3466 7.36889 23.3292 7.40946 23.3117 7.45003C23.2942 7.4906 23.2767 7.53116 23.2599 7.57173C23.185 7.6705 23.11 7.76674 23.035 7.86297L23.0348 7.86331C22.7695 8.20559 22.5048 8.54851 22.2402 8.89143C22.0418 9.14853 21.8434 9.40563 21.6447 9.66246ZM11.6952 15.4574C11.8264 15.4699 11.9571 15.4756 12.0893 15.4756C12.2285 15.4735 12.3661 15.4665 12.5045 15.4537C12.7768 15.4065 13.0429 15.3336 13.3006 15.2369C13.5525 15.1207 13.7923 14.9814 14.0178 14.8189C14.2164 14.6527 14.3989 14.4705 14.5655 14.2722C14.7314 14.041 14.8758 13.7945 14.9947 13.5355C15.0897 13.2821 15.1597 13.0208 15.2056 12.7534C15.2312 12.4762 15.2312 12.1979 15.2058 11.9207C15.1587 11.6483 15.0857 11.3822 14.9891 11.1244C14.8729 10.8725 14.7337 10.6325 14.5713 10.407C14.4051 10.2084 14.2229 10.0258 14.0247 9.85917C13.7936 9.69317 13.5472 9.5487 13.2883 9.42982C13.035 9.33475 12.7737 9.26473 12.5064 9.21877C12.2293 9.19321 11.951 9.19315 11.674 9.21861C11.4017 9.26575 11.1356 9.33871 10.8779 9.43541C10.6261 9.55159 10.3862 9.69091 10.1607 9.85335C9.96216 10.0196 9.77961 10.2018 9.61306 10.4001C9.44712 10.6313 9.3027 10.8778 9.18385 11.1368C9.08881 11.3901 9.01882 11.6515 8.97288 11.9189C8.94732 12.196 8.94727 12.4744 8.97271 12.7516C9.01984 13.0239 9.09278 13.2901 9.18945 13.5479C9.30559 13.7998 9.44486 14.0398 9.60725 14.2653C9.77342 14.4639 9.95561 14.6465 10.1538 14.8131C10.3849 14.9791 10.6313 15.1236 10.8903 15.2425C11.1508 15.3403 11.4198 15.4116 11.6952 15.4574ZM10.7162 15.1726C10.7453 15.1845 10.7745 15.1966 10.8036 15.2088C10.7744 15.1971 10.7452 15.185 10.7162 15.1726ZM9.25367 13.7097C9.24594 13.6912 9.23832 13.6727 9.23083 13.6542C9.23853 13.6727 9.24616 13.6912 9.25367 13.7097ZM8.9479 12.5901C8.95084 12.6107 8.95378 12.6314 8.9567 12.6521C8.95362 12.6315 8.95068 12.6108 8.9479 12.5901ZM8.98224 12.8448C8.98433 12.8619 8.98635 12.879 8.98829 12.8959C8.98617 12.8789 8.98416 12.8619 8.98224 12.8448ZM9.21748 11.0501C9.2292 11.0208 9.24127 10.9917 9.25367 10.9626C9.24183 10.9918 9.22971 11.0209 9.21748 11.0501ZM10.7162 9.49965C10.7346 9.49192 10.7531 9.48431 10.7716 9.47682C10.7531 9.48451 10.7347 9.49214 10.7162 9.49965ZM11.8354 9.19379C11.8148 9.19673 11.7941 9.19967 11.7733 9.20259C11.794 9.19951 11.8147 9.19657 11.8354 9.19379ZM11.5808 9.22814C11.5637 9.23022 11.5466 9.23225 11.5296 9.23419C11.5467 9.23207 11.5637 9.23006 11.5808 9.22814ZM13.4623 9.49965C13.4332 9.48781 13.404 9.47567 13.3749 9.46343C13.4041 9.47516 13.4333 9.48724 13.4623 9.49965ZM14.9476 11.018C14.94 10.9996 14.9323 10.9811 14.9248 10.9626C14.9326 10.981 14.9402 10.9995 14.9476 11.018ZM15.2306 12.0822C15.2277 12.0616 15.2247 12.0409 15.2218 12.0201C15.2249 12.0408 15.2278 12.0615 15.2306 12.0822ZM15.1963 11.8275C15.1942 11.8104 15.1922 11.7933 15.1902 11.7763C15.1923 11.7934 15.1944 11.8104 15.1963 11.8275ZM14.9248 13.7097C14.9367 13.6805 14.9488 13.6513 14.9611 13.6221C14.9493 13.6514 14.9373 13.6806 14.9248 13.7097ZM13.4623 15.1726C13.4439 15.1804 13.4254 15.188 13.4069 15.1954C13.4254 15.1878 13.4439 15.1801 13.4623 15.1726ZM12.3431 15.4785C12.3637 15.4755 12.3844 15.4726 12.4052 15.4697C12.3845 15.4728 12.3638 15.4757 12.3431 15.4785ZM12.6007 15.4438C12.6168 15.4418 12.6329 15.4399 12.6489 15.4381C12.6328 15.4401 12.6168 15.442 12.6007 15.4438ZM11.9755 17.7789C12.0128 17.7825 12.0507 17.7842 12.0893 17.784C13.1739 17.7783 14.2902 17.458 15.1758 16.8203C15.4239 16.6414 15.6662 16.4538 15.8854 16.2403C16.1075 16.0267 16.295 15.7872 16.4797 15.5449C16.8085 15.1149 17.0422 14.6359 17.2297 14.1281C17.9825 12.0822 17.3075 9.57756 15.6172 8.19539C15.3806 8.00206 15.1354 7.8145 14.8729 7.65579C14.6075 7.49709 14.3248 7.3759 14.0364 7.25759C13.5229 7.04695 12.9806 6.94595 12.4268 6.90267C11.345 6.8161 10.2085 7.10466 9.28252 7.66445C8.38828 8.20693 7.61232 9.02643 7.17674 9.98443C7.04982 10.2672 6.92866 10.5558 6.84212 10.8559C6.7527 11.1704 6.70943 11.4907 6.66905 11.8139C6.6027 12.3679 6.65174 12.9277 6.75847 13.473C6.96328 14.5147 7.53155 15.5189 8.29886 16.2518C9.06329 16.9847 10.0643 17.5272 11.1171 17.6888C11.4026 17.7325 11.688 17.7694 11.9755 17.7789Z" fill="#B0B0B0"/>
</svg>
